<svg xmlns="http://www.w3.org/2000/svg" width="595.28" height="841.89" viewBox="0 0 595.28 841.89"><path d="M318.834 635.379h-1V515.085L51.582 467.516l.176-.985 267.076 47.716z"/><path d="M298.834 636.068h-1V535.085L63.201 493.164l.176-.984 235.457 42.067z"/><path d="M288.834 635.843h-1v-90.758L70.474 506.25l.175-.984 218.185 38.981z"/><path d="M268.834 634.295h-1v-69.21L88.67 533.074l.176-.984 179.988 32.157z"/><path d="M258.834 632.966h-1v-57.881l-157.735-28.182.175-.984 158.56 28.328zM218.834 623.556h-1v-8.471l-38.23-6.831.175-.984 39.055 6.977zM557.834 313.188h1v114.805h-1zM398.834 616.888h-1V435.085L33.528 369.997l.176-.985 365.13 65.235zM548.834 462.223h-1V285.084L92.859 203.797l.176-.984 455.799 81.435zM275.174 105.708l138.273 24.707-.176.985-138.273-24.708zM240.086 111.224l204.067 36.465-.176.984-204.067-36.464zM214.44 118.428l251.208 44.888-.176.985-251.208-44.888zM193.54 126.48l288.993 51.64-.176.985-288.993-51.64zM175.637 135.068l320.742 57.313-.176.984-320.742-57.312zM159.912 144.044l348.162 62.212-.176.984-348.162-62.212zM145.875 153.322l372.156 66.5-.176.984-372.155-66.5zM133.256 162.854l393.377 70.292-.176.984-393.377-70.292zM121.78 172.59l412.251 73.664-.176.984-412.25-73.664zM111.311 182.506l429.111 76.677-.176.984-429.11-76.677zM101.768 192.587l444.139 79.362-.176.985-444.139-79.362z"/><path d="M228.834 626.527h-1v-21.442l-77.164-13.787.176-.985 77.988 13.934z"/><path d="M238.834 629.085h-1v-34l-107.863-19.272.175-.984 108.688 19.418zM388.834 620.687h-1V445.085L33.749 381.823l.176-.985 354.909 63.409z"/><path d="M378.834 624.046h-1V455.085L34.487 393.741l.176-.984 344.171 61.49z"/><path d="M368.834 626.937h-1V465.085L35.768 405.757l.176-.985 332.89 59.475z"/><path d="M358.834 629.435h-1v-154.35l-320.207-57.21.176-.984 321.031 57.356z"/><path d="M348.834 631.501h-1V485.085l-307.725-54.98.176-.984 308.549 55.126z"/><path d="M338.834 633.186h-1V495.085L43.23 442.45l.176-.984 295.428 52.781z"/><path d="M328.834 634.468h-1V505.085L47.037 454.917l.175-.984 281.622 50.314z"/><path d="M308.834 635.9h-1V525.085L56.931 480.258l.175-.985 251.728 44.974z"/><path d="M278.834 635.274h-1v-80.189L78.868 519.537l.175-.984 199.791 35.694z"/><path d="M248.834 631.211h-1v-46.126l-134.209-23.979.176-.984 135.033 24.125zM538.834 495.815h-1V295.084L84.859 214.155l.176-.985 453.799 81.078z"/><path d="M528.834 544.546h-1V305.084L77.547 224.635l.176-.984 451.111 80.597z"/><path d="M518.834 570.327h-1V315.084L70.879 235.23l.176-.984 447.779 80.002z"/><path d="M508.834 614h-1V325.084L64.82 245.935l.176-.985 443.838 79.298z"/><path d="M498.834 596.025h-1V335.084L59.34 256.742l.176-.984 439.318 78.49z"/><path d="M488.834 576.765h-1V345.084L54.419 267.649l.176-.984 434.239 77.583z"/><path d="M478.834 566.423h-1V355.084L50.059 278.657l.175-.984 428.6 76.575z"/><path d="M468.834 575.141h-1V365.084L46.222 289.758l.176-.984 422.436 75.474z"/><path d="M458.834 583.028h-1V375.084L42.896 300.951l.176-.985 415.762 74.282z"/><path d="M448.834 590.177h-1V385.084L40.072 312.233l.176-.984 408.586 72.999z"/><path d="M438.834 596.656h-1V395.084l-400.08-71.479.176-.984 400.904 71.627z"/><path d="M428.834 602.527h-1V405.084L35.956 335.07l.175-.984 392.703 70.162z"/><path d="M418.834 607.838h-1V415.084l-383.187-68.46.176-.985 384.011 68.609z"/><path d="M408.834 612.632h-1V425.085L33.828 358.264l.176-.985 374.83 66.968z"/><g><path d="M578.333 269.745l-158.583 37.63-25.646-29.103-20.42 16.023-149.184-64.42 55.432 138.643 75.959 42.81 143.734-2.331z"/><path fill="#FFF" d="M337.751 383.669l52.084 4.083-33.916 21.501zM570.833 273.5L454 346.333l-23.873-27.126-9.175-10.421zM452.75 347.504l-60.582 38.5-6.75-.418 8.832-104.664zM383.498 385.335l-47.166-3.417-25.667-35.747 81.917-64.417zM309.333 344.585L228.5 234l142.915 61.672zM282.333 367.5l-52.334-127.999 122.668 168.166zM498 407.334l-136.832 1.833L573 274.833z"/></g></svg>